<?xml version="1.0" standalone="no"?>
<!DOCTYPE svg PUBLIC "-//W3C//DTD SVG 20010904//EN"
 "http://www.w3.org/TR/2001/REC-SVG-20010904/DTD/svg10.dtd">
<svg version="1.0" xmlns="http://www.w3.org/2000/svg"
 width="508.000000pt" height="508.000000pt" viewBox="0 0 508.000000 508.000000"
 preserveAspectRatio="xMidYMid meet">
<metadata>
Created by potrace 1.11, written by Peter Selinger 2001-2013
</metadata>
<g transform="translate(0.000000,508.000000) scale(0.100000,-0.100000)"
fill="#000000" stroke="none">
<path d="M973 4953 c5 -17 188 -456 1127 -2700 233 -557 427 -1010 431 -1005
7 6 335 779 1266 2977 168 396 307 726 310 733 4 9 -313 12 -1567 12 -1493 0
-1572 -1 -1567 -17z"/>
<path d="M890 1472 l0 -1362 570 0 c314 0 570 2 570 4 0 6 -1131 2710 -1136
2715 -2 2 -4 -608 -4 -1357z"/>
<path d="M3593 1464 l-572 -1349 571 -3 c314 -1 573 -1 575 1 2 2 2 610 1
1351 l-3 1348 -572 -1348z"/>
</g>
</svg>
